# xmcd
#
# Track frame offsets: 
#        150
#        14688
#        34490
#        54604
#        90067
#        111160
#        128456
#        167209
#        188735
#        214769
#        238788
#
# Disc length: 3666 seconds
#
# Revision: 0
# Processed by: cddbd v1.5.2PL0 Copyright (c) Steve Scherf et al.
# Submitted via: ExactAudioCopyFreeDBPlugin 1.0
#
DISCID=900e500b
DTITLE=Niels von der Leyen and Andreas Bock - The Boogie Woogie Duo
DYEAR=2017
DGENRE=Blues
TTITLE0=Boogie Woogie Duo
TTITLE1=Honky Tonk Train Blues
TTITLE2=In A Yancey Style
TTITLE3=Boogie Suite No. 2
TTITLE4=Pinetop's Boogie Woogie
TTITLE5=Bakery In The Groove
TTITLE6=African Stomp
TTITLE7=Berlin Southside Jam
TTITLE8=Flashback Boogie XL
TTITLE9=The Session
TTITLE10=The Lion and The Fish Boogie
EXTD=
EXTT0=
EXTT1=
EXTT2=
EXTT3=
EXTT4=
EXTT5=
EXTT6=
EXTT7=
EXTT8=
EXTT9=
EXTT10=
PLAYORDER=
